<?xml version="1.0" encoding="utf-8" standalone="no"?>
<!DOCTYPE svg PUBLIC "-//W3C//DTD SVG 1.1//EN"
  "http://www.w3.org/Graphics/SVG/1.1/DTD/svg11.dtd">
<svg xmlns:xlink="http://www.w3.org/1999/xlink" width="864pt" height="432pt" viewBox="0 0 864 432" xmlns="http://www.w3.org/2000/svg" version="1.1">
 <metadata>
  <rdf:RDF xmlns:dc="http://purl.org/dc/elements/1.1/" xmlns:cc="http://creativecommons.org/ns#" xmlns:rdf="http://www.w3.org/1999/02/22-rdf-syntax-ns#">
   <cc:Work>
    <dc:type rdf:resource="http://purl.org/dc/dcmitype/StillImage"/>
    <dc:date>2024-05-18T13:03:44.236781</dc:date>
    <dc:format>image/svg+xml</dc:format>
    <dc:creator>
     <cc:Agent>
      <dc:title>Matplotlib v3.8.4, https://matplotlib.org/</dc:title>
     </cc:Agent>
    </dc:creator>
   </cc:Work>
  </rdf:RDF>
 </metadata>
 <defs>
  <style type="text/css">*{stroke-linejoin: round; stroke-linecap: butt}</style>
 </defs>
 <g id="figure_1">
  <g id="patch_1">
   <path d="M 0 432 
L 864 432 
L 864 0 
L 0 0 
z
" style="fill: #ffffff"/>
  </g>
  <g id="axes_1">
   <g id="patch_2">
    <path d="M 108 384.48 
L 777.6 384.48 
L 777.6 51.84 
L 108 51.84 
z
" style="fill: #ffffff"/>
   </g>
   <g id="matplotlib.axis_1">
    <g id="xtick_1">
     <g id="line2d_1">
      <path d="M 138.436364 384.48 
L 138.436364 51.84 
" clip-path="url(#p4814c45b5d)" style="fill: none; stroke: #b0b0b0; stroke-width: 0.8; stroke-linecap: square"/>
     </g>
     <g id="line2d_2">
      <defs>
       <path id="m34c3ff4487" d="M 0 0 
L 0 3.5 
" style="stroke: #000000; stroke-width: 0.8"/>
      </defs>
      <g>
       <use xlink:href="#m34c3ff4487" x="138.436364" y="384.48" style="stroke: #000000; stroke-width: 0.8"/>
      </g>
     </g>
     <g id="text_1">
      <!-- 0 -->
      <g transform="translate(135.255114 399.078438) scale(0.1 -0.1)">
       <defs>
        <path id="DejaVuSans-30" d="M 2034 4250 
Q 1547 4250 1301 3770 
Q 1056 3291 1056 2328 
Q 1056 1369 1301 889 
Q 1547 409 2034 409 
Q 2525 409 2770 889 
Q 3016 1369 3016 2328 
Q 3016 3291 2770 3770 
Q 2525 4250 2034 4250 
z
M 2034 4750 
Q 2819 4750 3233 4129 
Q 3647 3509 3647 2328 
Q 3647 1150 3233 529 
Q 2819 -91 2034 -91 
Q 1250 -91 836 529 
Q 422 1150 422 2328 
Q 422 3509 836 4129 
Q 1250 4750 2034 4750 
z
" transform="scale(0.015625)"/>
       </defs>
       <use xlink:href="#DejaVuSans-30"/>
      </g>
     </g>
    </g>
    <g id="xtick_2">
     <g id="line2d_3">
      <path d="M 260.181818 384.48 
L 260.181818 51.84 
" clip-path="url(#p4814c45b5d)" style="fill: none; stroke: #b0b0b0; stroke-width: 0.8; stroke-linecap: square"/>
     </g>
     <g id="line2d_4">
      <g>
       <use xlink:href="#m34c3ff4487" x="260.181818" y="384.48" style="stroke: #000000; stroke-width: 0.8"/>
      </g>
     </g>
     <g id="text_2">
      <!-- 200 -->
      <g transform="translate(250.638068 399.078438) scale(0.1 -0.1)">
       <defs>
        <path id="DejaVuSans-32" d="M 1228 531 
L 3431 531 
L 3431 0 
L 469 0 
L 469 531 
Q 828 903 1448 1529 
Q 2069 2156 2228 2338 
Q 2531 2678 2651 2914 
Q 2772 3150 2772 3378 
Q 2772 3750 2511 3984 
Q 2250 4219 1831 4219 
Q 1534 4219 1204 4116 
Q 875 4013 500 3803 
L 500 4441 
Q 881 4594 1212 4672 
Q 1544 4750 1819 4750 
Q 2544 4750 2975 4387 
Q 3406 4025 3406 3419 
Q 3406 3131 3298 2873 
Q 3191 2616 2906 2266 
Q 2828 2175 2409 1742 
Q 1991 1309 1228 531 
z
" transform="scale(0.015625)"/>
       </defs>
       <use xlink:href="#DejaVuSans-32"/>
       <use xlink:href="#DejaVuSans-30" x="63.623047"/>
       <use xlink:href="#DejaVuSans-30" x="127.246094"/>
      </g>
     </g>
    </g>
    <g id="xtick_3">
     <g id="line2d_5">
      <path d="M 381.927273 384.48 
L 381.927273 51.84 
" clip-path="url(#p4814c45b5d)" style="fill: none; stroke: #b0b0b0; stroke-width: 0.8; stroke-linecap: square"/>
     </g>
     <g id="line2d_6">
      <g>
       <use xlink:href="#m34c3ff4487" x="381.927273" y="384.48" style="stroke: #000000; stroke-width: 0.8"/>
      </g>
     </g>
     <g id="text_3">
      <!-- 400 -->
      <g transform="translate(372.383523 399.078438) scale(0.1 -0.1)">
       <defs>
        <path id="DejaVuSans-34" d="M 2419 4116 
L 825 1625 
L 2419 1625 
L 2419 4116 
z
M 2253 4666 
L 3047 4666 
L 3047 1625 
L 3713 1625 
L 3713 1100 
L 3047 1100 
L 3047 0 
L 2419 0 
L 2419 1100 
L 313 1100 
L 313 1709 
L 2253 4666 
z
" transform="scale(0.015625)"/>
       </defs>
       <use xlink:href="#DejaVuSans-34"/>
       <use xlink:href="#DejaVuSans-30" x="63.623047"/>
       <use xlink:href="#DejaVuSans-30" x="127.246094"/>
      </g>
     </g>
    </g>
    <g id="xtick_4">
     <g id="line2d_7">
      <path d="M 503.672727 384.48 
L 503.672727 51.84 
" clip-path="url(#p4814c45b5d)" style="fill: none; stroke: #b0b0b0; stroke-width: 0.8; stroke-linecap: square"/>
     </g>
     <g id="line2d_8">
      <g>
       <use xlink:href="#m34c3ff4487" x="503.672727" y="384.48" style="stroke: #000000; stroke-width: 0.8"/>
      </g>
     </g>
     <g id="text_4">
      <!-- 600 -->
      <g transform="translate(494.128977 399.078438) scale(0.1 -0.1)">
       <defs>
        <path id="DejaVuSans-36" d="M 2113 2584 
Q 1688 2584 1439 2293 
Q 1191 2003 1191 1497 
Q 1191 994 1439 701 
Q 1688 409 2113 409 
Q 2538 409 2786 701 
Q 3034 994 3034 1497 
Q 3034 2003 2786 2293 
Q 2538 2584 2113 2584 
z
M 3366 4563 
L 3366 3988 
Q 3128 4100 2886 4159 
Q 2644 4219 2406 4219 
Q 1781 4219 1451 3797 
Q 1122 3375 1075 2522 
Q 1259 2794 1537 2939 
Q 1816 3084 2150 3084 
Q 2853 3084 3261 2657 
Q 3669 2231 3669 1497 
Q 3669 778 3244 343 
Q 2819 -91 2113 -91 
Q 1303 -91 875 529 
Q 447 1150 447 2328 
Q 447 3434 972 4092 
Q 1497 4750 2381 4750 
Q 2619 4750 2861 4703 
Q 3103 4656 3366 4563 
z
" transform="scale(0.015625)"/>
       </defs>
       <use xlink:href="#DejaVuSans-36"/>
       <use xlink:href="#DejaVuSans-30" x="63.623047"/>
       <use xlink:href="#DejaVuSans-30" x="127.246094"/>
      </g>
     </g>
    </g>
    <g id="xtick_5">
     <g id="line2d_9">
      <path d="M 625.418182 384.48 
L 625.418182 51.84 
" clip-path="url(#p4814c45b5d)" style="fill: none; stroke: #b0b0b0; stroke-width: 0.8; stroke-linecap: square"/>
     </g>
     <g id="line2d_10">
      <g>
       <use xlink:href="#m34c3ff4487" x="625.418182" y="384.48" style="stroke: #000000; stroke-width: 0.8"/>
      </g>
     </g>
     <g id="text_5">
      <!-- 800 -->
      <g transform="translate(615.874432 399.078438) scale(0.1 -0.1)">
       <defs>
        <path id="DejaVuSans-38" d="M 2034 2216 
Q 1584 2216 1326 1975 
Q 1069 1734 1069 1313 
Q 1069 891 1326 650 
Q 1584 409 2034 409 
Q 2484 409 2743 651 
Q 3003 894 3003 1313 
Q 3003 1734 2745 1975 
Q 2488 2216 2034 2216 
z
M 1403 2484 
Q 997 2584 770 2862 
Q 544 3141 544 3541 
Q 544 4100 942 4425 
Q 1341 4750 2034 4750 
Q 2731 4750 3128 4425 
Q 3525 4100 3525 3541 
Q 3525 3141 3298 2862 
Q 3072 2584 2669 2484 
Q 3125 2378 3379 2068 
Q 3634 1759 3634 1313 
Q 3634 634 3220 271 
Q 2806 -91 2034 -91 
Q 1263 -91 848 271 
Q 434 634 434 1313 
Q 434 1759 690 2068 
Q 947 2378 1403 2484 
z
M 1172 3481 
Q 1172 3119 1398 2916 
Q 1625 2713 2034 2713 
Q 2441 2713 2670 2916 
Q 2900 3119 2900 3481 
Q 2900 3844 2670 4047 
Q 2441 4250 2034 4250 
Q 1625 4250 1398 4047 
Q 1172 3844 1172 3481 
z
" transform="scale(0.015625)"/>
       </defs>
       <use xlink:href="#DejaVuSans-38"/>
       <use xlink:href="#DejaVuSans-30" x="63.623047"/>
       <use xlink:href="#DejaVuSans-30" x="127.246094"/>
      </g>
     </g>
    </g>
    <g id="xtick_6">
     <g id="line2d_11">
      <path d="M 747.163636 384.48 
L 747.163636 51.84 
" clip-path="url(#p4814c45b5d)" style="fill: none; stroke: #b0b0b0; stroke-width: 0.8; stroke-linecap: square"/>
     </g>
     <g id="line2d_12">
      <g>
       <use xlink:href="#m34c3ff4487" x="747.163636" y="384.48" style="stroke: #000000; stroke-width: 0.8"/>
      </g>
     </g>
     <g id="text_6">
      <!-- 1000 -->
      <g transform="translate(734.438636 399.078438) scale(0.1 -0.1)">
       <defs>
        <path id="DejaVuSans-31" d="M 794 531 
L 1825 531 
L 1825 4091 
L 703 3866 
L 703 4441 
L 1819 4666 
L 2450 4666 
L 2450 531 
L 3481 531 
L 3481 0 
L 794 0 
L 794 531 
z
" transform="scale(0.015625)"/>
       </defs>
       <use xlink:href="#DejaVuSans-31"/>
       <use xlink:href="#DejaVuSans-30" x="63.623047"/>
       <use xlink:href="#DejaVuSans-30" x="127.246094"/>
       <use xlink:href="#DejaVuSans-30" x="190.869141"/>
      </g>
     </g>
    </g>
    <g id="text_7">
     <!-- Matrix Size -->
     <g transform="translate(415.204688 412.756563) scale(0.1 -0.1)">
      <defs>
       <path id="DejaVuSans-4d" d="M 628 4666 
L 1569 4666 
L 2759 1491 
L 3956 4666 
L 4897 4666 
L 4897 0 
L 4281 0 
L 4281 4097 
L 3078 897 
L 2444 897 
L 1241 4097 
L 1241 0 
L 628 0 
L 628 4666 
z
" transform="scale(0.015625)"/>
       <path id="DejaVuSans-61" d="M 2194 1759 
Q 1497 1759 1228 1600 
Q 959 1441 959 1056 
Q 959 750 1161 570 
Q 1363 391 1709 391 
Q 2188 391 2477 730 
Q 2766 1069 2766 1631 
L 2766 1759 
L 2194 1759 
z
M 3341 1997 
L 3341 0 
L 2766 0 
L 2766 531 
Q 2569 213 2275 61 
Q 1981 -91 1556 -91 
Q 1019 -91 701 211 
Q 384 513 384 1019 
Q 384 1609 779 1909 
Q 1175 2209 1959 2209 
L 2766 2209 
L 2766 2266 
Q 2766 2663 2505 2880 
Q 2244 3097 1772 3097 
Q 1472 3097 1187 3025 
Q 903 2953 641 2809 
L 641 3341 
Q 956 3463 1253 3523 
Q 1550 3584 1831 3584 
Q 2591 3584 2966 3190 
Q 3341 2797 3341 1997 
z
" transform="scale(0.015625)"/>
       <path id="DejaVuSans-74" d="M 1172 4494 
L 1172 3500 
L 2356 3500 
L 2356 3053 
L 1172 3053 
L 1172 1153 
Q 1172 725 1289 603 
Q 1406 481 1766 481 
L 2356 481 
L 2356 0 
L 1766 0 
Q 1100 0 847 248 
Q 594 497 594 1153 
L 594 3053 
L 172 3053 
L 172 3500 
L 594 3500 
L 594 4494 
L 1172 4494 
z
" transform="scale(0.015625)"/>
       <path id="DejaVuSans-72" d="M 2631 2963 
Q 2534 3019 2420 3045 
Q 2306 3072 2169 3072 
Q 1681 3072 1420 2755 
Q 1159 2438 1159 1844 
L 1159 0 
L 581 0 
L 581 3500 
L 1159 3500 
L 1159 2956 
Q 1341 3275 1631 3429 
Q 1922 3584 2338 3584 
Q 2397 3584 2469 3576 
Q 2541 3569 2628 3553 
L 2631 2963 
z
" transform="scale(0.015625)"/>
       <path id="DejaVuSans-69" d="M 603 3500 
L 1178 3500 
L 1178 0 
L 603 0 
L 603 3500 
z
M 603 4863 
L 1178 4863 
L 1178 4134 
L 603 4134 
L 603 4863 
z
" transform="scale(0.015625)"/>
       <path id="DejaVuSans-78" d="M 3513 3500 
L 2247 1797 
L 3578 0 
L 2900 0 
L 1881 1375 
L 863 0 
L 184 0 
L 1544 1831 
L 300 3500 
L 978 3500 
L 1906 2253 
L 2834 3500 
L 3513 3500 
z
" transform="scale(0.015625)"/>
       <path id="DejaVuSans-20" transform="scale(0.015625)"/>
       <path id="DejaVuSans-53" d="M 3425 4513 
L 3425 3897 
Q 3066 4069 2747 4153 
Q 2428 4238 2131 4238 
Q 1616 4238 1336 4038 
Q 1056 3838 1056 3469 
Q 1056 3159 1242 3001 
Q 1428 2844 1947 2747 
L 2328 2669 
Q 3034 2534 3370 2195 
Q 3706 1856 3706 1288 
Q 3706 609 3251 259 
Q 2797 -91 1919 -91 
Q 1588 -91 1214 -16 
Q 841 59 441 206 
L 441 856 
Q 825 641 1194 531 
Q 1563 422 1919 422 
Q 2459 422 2753 634 
Q 3047 847 3047 1241 
Q 3047 1584 2836 1778 
Q 2625 1972 2144 2069 
L 1759 2144 
Q 1053 2284 737 2584 
Q 422 2884 422 3419 
Q 422 4038 858 4394 
Q 1294 4750 2059 4750 
Q 2388 4750 2728 4690 
Q 3069 4631 3425 4513 
z
" transform="scale(0.015625)"/>
       <path id="DejaVuSans-7a" d="M 353 3500 
L 3084 3500 
L 3084 2975 
L 922 459 
L 3084 459 
L 3084 0 
L 275 0 
L 275 525 
L 2438 3041 
L 353 3041 
L 353 3500 
z
" transform="scale(0.015625)"/>
       <path id="DejaVuSans-65" d="M 3597 1894 
L 3597 1613 
L 953 1613 
Q 991 1019 1311 708 
Q 1631 397 2203 397 
Q 2534 397 2845 478 
Q 3156 559 3463 722 
L 3463 178 
Q 3153 47 2828 -22 
Q 2503 -91 2169 -91 
Q 1331 -91 842 396 
Q 353 884 353 1716 
Q 353 2575 817 3079 
Q 1281 3584 2069 3584 
Q 2775 3584 3186 3129 
Q 3597 2675 3597 1894 
z
M 3022 2063 
Q 3016 2534 2758 2815 
Q 2500 3097 2075 3097 
Q 1594 3097 1305 2825 
Q 1016 2553 972 2059 
L 3022 2063 
z
" transform="scale(0.015625)"/>
      </defs>
      <use xlink:href="#DejaVuSans-4d"/>
      <use xlink:href="#DejaVuSans-61" x="86.279297"/>
      <use xlink:href="#DejaVuSans-74" x="147.558594"/>
      <use xlink:href="#DejaVuSans-72" x="186.767578"/>
      <use xlink:href="#DejaVuSans-69" x="227.880859"/>
      <use xlink:href="#DejaVuSans-78" x="255.664062"/>
      <use xlink:href="#DejaVuSans-20" x="314.84375"/>
      <use xlink:href="#DejaVuSans-53" x="346.630859"/>
      <use xlink:href="#DejaVuSans-69" x="410.107422"/>
      <use xlink:href="#DejaVuSans-7a" x="437.890625"/>
      <use xlink:href="#DejaVuSans-65" x="490.380859"/>
     </g>
    </g>
   </g>
   <g id="matplotlib.axis_2">
    <g id="ytick_1">
     <g id="line2d_13">
      <path d="M 108 369.360445 
L 777.6 369.360445 
" clip-path="url(#p4814c45b5d)" style="fill: none; stroke: #b0b0b0; stroke-width: 0.8; stroke-linecap: square"/>
     </g>
     <g id="line2d_14">
      <defs>
       <path id="mb4a74b8655" d="M 0 0 
L -3.5 0 
" style="stroke: #000000; stroke-width: 0.8"/>
      </defs>
      <g>
       <use xlink:href="#mb4a74b8655" x="108" y="369.360445" style="stroke: #000000; stroke-width: 0.8"/>
      </g>
     </g>
     <g id="text_8">
      <!-- 0.0 -->
      <g transform="translate(85.096875 373.159664) scale(0.1 -0.1)">
       <defs>
        <path id="DejaVuSans-2e" d="M 684 794 
L 1344 794 
L 1344 0 
L 684 0 
L 684 794 
z
" transform="scale(0.015625)"/>
       </defs>
       <use xlink:href="#DejaVuSans-30"/>
       <use xlink:href="#DejaVuSans-2e" x="63.623047"/>
       <use xlink:href="#DejaVuSans-30" x="95.410156"/>
      </g>
     </g>
    </g>
    <g id="ytick_2">
     <g id="line2d_15">
      <path d="M 108 324.823117 
L 777.6 324.823117 
" clip-path="url(#p4814c45b5d)" style="fill: none; stroke: #b0b0b0; stroke-width: 0.8; stroke-linecap: square"/>
     </g>
     <g id="line2d_16">
      <g>
       <use xlink:href="#mb4a74b8655" x="108" y="324.823117" style="stroke: #000000; stroke-width: 0.8"/>
      </g>
     </g>
     <g id="text_9">
      <!-- 0.1 -->
      <g transform="translate(85.096875 328.622335) scale(0.1 -0.1)">
       <use xlink:href="#DejaVuSans-30"/>
       <use xlink:href="#DejaVuSans-2e" x="63.623047"/>
       <use xlink:href="#DejaVuSans-31" x="95.410156"/>
      </g>
     </g>
    </g>
    <g id="ytick_3">
     <g id="line2d_17">
      <path d="M 108 280.285788 
L 777.6 280.285788 
" clip-path="url(#p4814c45b5d)" style="fill: none; stroke: #b0b0b0; stroke-width: 0.8; stroke-linecap: square"/>
     </g>
     <g id="line2d_18">
      <g>
       <use xlink:href="#mb4a74b8655" x="108" y="280.285788" style="stroke: #000000; stroke-width: 0.8"/>
      </g>
     </g>
     <g id="text_10">
      <!-- 0.2 -->
      <g transform="translate(85.096875 284.085007) scale(0.1 -0.1)">
       <use xlink:href="#DejaVuSans-30"/>
       <use xlink:href="#DejaVuSans-2e" x="63.623047"/>
       <use xlink:href="#DejaVuSans-32" x="95.410156"/>
      </g>
     </g>
    </g>
    <g id="ytick_4">
     <g id="line2d_19">
      <path d="M 108 235.748459 
L 777.6 235.748459 
" clip-path="url(#p4814c45b5d)" style="fill: none; stroke: #b0b0b0; stroke-width: 0.8; stroke-linecap: square"/>
     </g>
     <g id="line2d_20">
      <g>
       <use xlink:href="#mb4a74b8655" x="108" y="235.748459" style="stroke: #000000; stroke-width: 0.8"/>
      </g>
     </g>
     <g id="text_11">
      <!-- 0.3 -->
      <g transform="translate(85.096875 239.547678) scale(0.1 -0.1)">
       <defs>
        <path id="DejaVuSans-33" d="M 2597 2516 
Q 3050 2419 3304 2112 
Q 3559 1806 3559 1356 
Q 3559 666 3084 287 
Q 2609 -91 1734 -91 
Q 1441 -91 1130 -33 
Q 819 25 488 141 
L 488 750 
Q 750 597 1062 519 
Q 1375 441 1716 441 
Q 2309 441 2620 675 
Q 2931 909 2931 1356 
Q 2931 1769 2642 2001 
Q 2353 2234 1838 2234 
L 1294 2234 
L 1294 2753 
L 1863 2753 
Q 2328 2753 2575 2939 
Q 2822 3125 2822 3475 
Q 2822 3834 2567 4026 
Q 2313 4219 1838 4219 
Q 1578 4219 1281 4162 
Q 984 4106 628 3988 
L 628 4550 
Q 988 4650 1302 4700 
Q 1616 4750 1894 4750 
Q 2613 4750 3031 4423 
Q 3450 4097 3450 3541 
Q 3450 3153 3228 2886 
Q 3006 2619 2597 2516 
z
" transform="scale(0.015625)"/>
       </defs>
       <use xlink:href="#DejaVuSans-30"/>
       <use xlink:href="#DejaVuSans-2e" x="63.623047"/>
       <use xlink:href="#DejaVuSans-33" x="95.410156"/>
      </g>
     </g>
    </g>
    <g id="ytick_5">
     <g id="line2d_21">
      <path d="M 108 191.21113 
L 777.6 191.21113 
" clip-path="url(#p4814c45b5d)" style="fill: none; stroke: #b0b0b0; stroke-width: 0.8; stroke-linecap: square"/>
     </g>
     <g id="line2d_22">
      <g>
       <use xlink:href="#mb4a74b8655" x="108" y="191.21113" style="stroke: #000000; stroke-width: 0.8"/>
      </g>
     </g>
     <g id="text_12">
      <!-- 0.4 -->
      <g transform="translate(85.096875 195.010349) scale(0.1 -0.1)">
       <use xlink:href="#DejaVuSans-30"/>
       <use xlink:href="#DejaVuSans-2e" x="63.623047"/>
       <use xlink:href="#DejaVuSans-34" x="95.410156"/>
      </g>
     </g>
    </g>
    <g id="ytick_6">
     <g id="line2d_23">
      <path d="M 108 146.673802 
L 777.6 146.673802 
" clip-path="url(#p4814c45b5d)" style="fill: none; stroke: #b0b0b0; stroke-width: 0.8; stroke-linecap: square"/>
     </g>
     <g id="line2d_24">
      <g>
       <use xlink:href="#mb4a74b8655" x="108" y="146.673802" style="stroke: #000000; stroke-width: 0.8"/>
      </g>
     </g>
     <g id="text_13">
      <!-- 0.5 -->
      <g transform="translate(85.096875 150.47302) scale(0.1 -0.1)">
       <defs>
        <path id="DejaVuSans-35" d="M 691 4666 
L 3169 4666 
L 3169 4134 
L 1269 4134 
L 1269 2991 
Q 1406 3038 1543 3061 
Q 1681 3084 1819 3084 
Q 2600 3084 3056 2656 
Q 3513 2228 3513 1497 
Q 3513 744 3044 326 
Q 2575 -91 1722 -91 
Q 1428 -91 1123 -41 
Q 819 9 494 109 
L 494 744 
Q 775 591 1075 516 
Q 1375 441 1709 441 
Q 2250 441 2565 725 
Q 2881 1009 2881 1497 
Q 2881 1984 2565 2268 
Q 2250 2553 1709 2553 
Q 1456 2553 1204 2497 
Q 953 2441 691 2322 
L 691 4666 
z
" transform="scale(0.015625)"/>
       </defs>
       <use xlink:href="#DejaVuSans-30"/>
       <use xlink:href="#DejaVuSans-2e" x="63.623047"/>
       <use xlink:href="#DejaVuSans-35" x="95.410156"/>
      </g>
     </g>
    </g>
    <g id="ytick_7">
     <g id="line2d_25">
      <path d="M 108 102.136473 
L 777.6 102.136473 
" clip-path="url(#p4814c45b5d)" style="fill: none; stroke: #b0b0b0; stroke-width: 0.8; stroke-linecap: square"/>
     </g>
     <g id="line2d_26">
      <g>
       <use xlink:href="#mb4a74b8655" x="108" y="102.136473" style="stroke: #000000; stroke-width: 0.8"/>
      </g>
     </g>
     <g id="text_14">
      <!-- 0.6 -->
      <g transform="translate(85.096875 105.935692) scale(0.1 -0.1)">
       <use xlink:href="#DejaVuSans-30"/>
       <use xlink:href="#DejaVuSans-2e" x="63.623047"/>
       <use xlink:href="#DejaVuSans-36" x="95.410156"/>
      </g>
     </g>
    </g>
    <g id="ytick_8">
     <g id="line2d_27">
      <path d="M 108 57.599144 
L 777.6 57.599144 
" clip-path="url(#p4814c45b5d)" style="fill: none; stroke: #b0b0b0; stroke-width: 0.8; stroke-linecap: square"/>
     </g>
     <g id="line2d_28">
      <g>
       <use xlink:href="#mb4a74b8655" x="108" y="57.599144" style="stroke: #000000; stroke-width: 0.8"/>
      </g>
     </g>
     <g id="text_15">
      <!-- 0.7 -->
      <g transform="translate(85.096875 61.398363) scale(0.1 -0.1)">
       <defs>
        <path id="DejaVuSans-37" d="M 525 4666 
L 3525 4666 
L 3525 4397 
L 1831 0 
L 1172 0 
L 2766 4134 
L 525 4134 
L 525 4666 
z
" transform="scale(0.015625)"/>
       </defs>
       <use xlink:href="#DejaVuSans-30"/>
       <use xlink:href="#DejaVuSans-2e" x="63.623047"/>
       <use xlink:href="#DejaVuSans-37" x="95.410156"/>
      </g>
     </g>
    </g>
    <g id="text_16">
     <!-- Execution Time (s) -->
     <g transform="translate(79.017187 264.612344) rotate(-90) scale(0.1 -0.1)">
      <defs>
       <path id="DejaVuSans-45" d="M 628 4666 
L 3578 4666 
L 3578 4134 
L 1259 4134 
L 1259 2753 
L 3481 2753 
L 3481 2222 
L 1259 2222 
L 1259 531 
L 3634 531 
L 3634 0 
L 628 0 
L 628 4666 
z
" transform="scale(0.015625)"/>
       <path id="DejaVuSans-63" d="M 3122 3366 
L 3122 2828 
Q 2878 2963 2633 3030 
Q 2388 3097 2138 3097 
Q 1578 3097 1268 2742 
Q 959 2388 959 1747 
Q 959 1106 1268 751 
Q 1578 397 2138 397 
Q 2388 397 2633 464 
Q 2878 531 3122 666 
L 3122 134 
Q 2881 22 2623 -34 
Q 2366 -91 2075 -91 
Q 1284 -91 818 406 
Q 353 903 353 1747 
Q 353 2603 823 3093 
Q 1294 3584 2113 3584 
Q 2378 3584 2631 3529 
Q 2884 3475 3122 3366 
z
" transform="scale(0.015625)"/>
       <path id="DejaVuSans-75" d="M 544 1381 
L 544 3500 
L 1119 3500 
L 1119 1403 
Q 1119 906 1312 657 
Q 1506 409 1894 409 
Q 2359 409 2629 706 
Q 2900 1003 2900 1516 
L 2900 3500 
L 3475 3500 
L 3475 0 
L 2900 0 
L 2900 538 
Q 2691 219 2414 64 
Q 2138 -91 1772 -91 
Q 1169 -91 856 284 
Q 544 659 544 1381 
z
M 1991 3584 
L 1991 3584 
z
" transform="scale(0.015625)"/>
       <path id="DejaVuSans-6f" d="M 1959 3097 
Q 1497 3097 1228 2736 
Q 959 2375 959 1747 
Q 959 1119 1226 758 
Q 1494 397 1959 397 
Q 2419 397 2687 759 
Q 2956 1122 2956 1747 
Q 2956 2369 2687 2733 
Q 2419 3097 1959 3097 
z
M 1959 3584 
Q 2709 3584 3137 3096 
Q 3566 2609 3566 1747 
Q 3566 888 3137 398 
Q 2709 -91 1959 -91 
Q 1206 -91 779 398 
Q 353 888 353 1747 
Q 353 2609 779 3096 
Q 1206 3584 1959 3584 
z
" transform="scale(0.015625)"/>
       <path id="DejaVuSans-6e" d="M 3513 2113 
L 3513 0 
L 2938 0 
L 2938 2094 
Q 2938 2591 2744 2837 
Q 2550 3084 2163 3084 
Q 1697 3084 1428 2787 
Q 1159 2491 1159 1978 
L 1159 0 
L 581 0 
L 581 3500 
L 1159 3500 
L 1159 2956 
Q 1366 3272 1645 3428 
Q 1925 3584 2291 3584 
Q 2894 3584 3203 3211 
Q 3513 2838 3513 2113 
z
" transform="scale(0.015625)"/>
       <path id="DejaVuSans-54" d="M -19 4666 
L 3928 4666 
L 3928 4134 
L 2272 4134 
L 2272 0 
L 1638 0 
L 1638 4134 
L -19 4134 
L -19 4666 
z
" transform="scale(0.015625)"/>
       <path id="DejaVuSans-6d" d="M 3328 2828 
Q 3544 3216 3844 3400 
Q 4144 3584 4550 3584 
Q 5097 3584 5394 3201 
Q 5691 2819 5691 2113 
L 5691 0 
L 5113 0 
L 5113 2094 
Q 5113 2597 4934 2840 
Q 4756 3084 4391 3084 
Q 3944 3084 3684 2787 
Q 3425 2491 3425 1978 
L 3425 0 
L 2847 0 
L 2847 2094 
Q 2847 2600 2669 2842 
Q 2491 3084 2119 3084 
Q 1678 3084 1418 2786 
Q 1159 2488 1159 1978 
L 1159 0 
L 581 0 
L 581 3500 
L 1159 3500 
L 1159 2956 
Q 1356 3278 1631 3431 
Q 1906 3584 2284 3584 
Q 2666 3584 2933 3390 
Q 3200 3197 3328 2828 
z
" transform="scale(0.015625)"/>
       <path id="DejaVuSans-28" d="M 1984 4856 
Q 1566 4138 1362 3434 
Q 1159 2731 1159 2009 
Q 1159 1288 1364 580 
Q 1569 -128 1984 -844 
L 1484 -844 
Q 1016 -109 783 600 
Q 550 1309 550 2009 
Q 550 2706 781 3412 
Q 1013 4119 1484 4856 
L 1984 4856 
z
" transform="scale(0.015625)"/>
       <path id="DejaVuSans-73" d="M 2834 3397 
L 2834 2853 
Q 2591 2978 2328 3040 
Q 2066 3103 1784 3103 
Q 1356 3103 1142 2972 
Q 928 2841 928 2578 
Q 928 2378 1081 2264 
Q 1234 2150 1697 2047 
L 1894 2003 
Q 2506 1872 2764 1633 
Q 3022 1394 3022 966 
Q 3022 478 2636 193 
Q 2250 -91 1575 -91 
Q 1294 -91 989 -36 
Q 684 19 347 128 
L 347 722 
Q 666 556 975 473 
Q 1284 391 1588 391 
Q 1994 391 2212 530 
Q 2431 669 2431 922 
Q 2431 1156 2273 1281 
Q 2116 1406 1581 1522 
L 1381 1569 
Q 847 1681 609 1914 
Q 372 2147 372 2553 
Q 372 3047 722 3315 
Q 1072 3584 1716 3584 
Q 2034 3584 2315 3537 
Q 2597 3491 2834 3397 
z
" transform="scale(0.015625)"/>
       <path id="DejaVuSans-29" d="M 513 4856 
L 1013 4856 
Q 1481 4119 1714 3412 
Q 1947 2706 1947 2009 
Q 1947 1309 1714 600 
Q 1481 -109 1013 -844 
L 513 -844 
Q 928 -128 1133 580 
Q 1338 1288 1338 2009 
Q 1338 2731 1133 3434 
Q 928 4138 513 4856 
z
" transform="scale(0.015625)"/>
      </defs>
      <use xlink:href="#DejaVuSans-45"/>
      <use xlink:href="#DejaVuSans-78" x="63.183594"/>
      <use xlink:href="#DejaVuSans-65" x="119.238281"/>
      <use xlink:href="#DejaVuSans-63" x="180.761719"/>
      <use xlink:href="#DejaVuSans-75" x="235.742188"/>
      <use xlink:href="#DejaVuSans-74" x="299.121094"/>
      <use xlink:href="#DejaVuSans-69" x="338.330078"/>
      <use xlink:href="#DejaVuSans-6f" x="366.113281"/>
      <use xlink:href="#DejaVuSans-6e" x="427.294922"/>
      <use xlink:href="#DejaVuSans-20" x="490.673828"/>
      <use xlink:href="#DejaVuSans-54" x="522.460938"/>
      <use xlink:href="#DejaVuSans-69" x="580.419922"/>
      <use xlink:href="#DejaVuSans-6d" x="608.203125"/>
      <use xlink:href="#DejaVuSans-65" x="705.615234"/>
      <use xlink:href="#DejaVuSans-20" x="767.138672"/>
      <use xlink:href="#DejaVuSans-28" x="798.925781"/>
      <use xlink:href="#DejaVuSans-73" x="837.939453"/>
      <use xlink:href="#DejaVuSans-29" x="890.039062"/>
     </g>
    </g>
   </g>
   <g id="line2d_29">
    <path d="M 138.436364 369.36 
L 168.872727 369.350202 
L 199.309091 366.891296 
L 229.745455 368.661655 
L 260.181818 369.247321 
L 290.618182 369.276715 
L 321.054545 369.239304 
L 351.490909 369.168489 
L 381.927273 369.063827 
L 412.363636 368.929324 
L 442.8 368.784132 
L 473.236364 368.640722 
L 503.672727 368.462127 
L 534.109091 368.300902 
L 564.545455 365.037207 
L 594.981818 367.046731 
L 625.418182 366.779507 
L 655.854545 366.452603 
L 686.290909 366.279798 
L 716.727273 365.10045 
L 747.163636 364.822982 
" clip-path="url(#p4814c45b5d)" style="fill: none; stroke: #1f77b4; stroke-width: 1.5; stroke-linecap: square"/>
    <defs>
     <path id="m87d40ee06c" d="M 0 3 
C 0.795609 3 1.55874 2.683901 2.12132 2.12132 
C 2.683901 1.55874 3 0.795609 3 0 
C 3 -0.795609 2.683901 -1.55874 2.12132 -2.12132 
C 1.55874 -2.683901 0.795609 -3 0 -3 
C -0.795609 -3 -1.55874 -2.683901 -2.12132 -2.12132 
C -2.683901 -1.55874 -3 -0.795609 -3 0 
C -3 0.795609 -2.683901 1.55874 -2.12132 2.12132 
C -1.55874 2.683901 -0.795609 3 0 3 
z
" style="stroke: #1f77b4"/>
    </defs>
    <g clip-path="url(#p4814c45b5d)">
     <use xlink:href="#m87d40ee06c" x="138.436364" y="369.36" style="fill: #1f77b4; stroke: #1f77b4"/>
     <use xlink:href="#m87d40ee06c" x="168.872727" y="369.350202" style="fill: #1f77b4; stroke: #1f77b4"/>
     <use xlink:href="#m87d40ee06c" x="199.309091" y="366.891296" style="fill: #1f77b4; stroke: #1f77b4"/>
     <use xlink:href="#m87d40ee06c" x="229.745455" y="368.661655" style="fill: #1f77b4; stroke: #1f77b4"/>
     <use xlink:href="#m87d40ee06c" x="260.181818" y="369.247321" style="fill: #1f77b4; stroke: #1f77b4"/>
     <use xlink:href="#m87d40ee06c" x="290.618182" y="369.276715" style="fill: #1f77b4; stroke: #1f77b4"/>
     <use xlink:href="#m87d40ee06c" x="321.054545" y="369.239304" style="fill: #1f77b4; stroke: #1f77b4"/>
     <use xlink:href="#m87d40ee06c" x="351.490909" y="369.168489" style="fill: #1f77b4; stroke: #1f77b4"/>
     <use xlink:href="#m87d40ee06c" x="381.927273" y="369.063827" style="fill: #1f77b4; stroke: #1f77b4"/>
     <use xlink:href="#m87d40ee06c" x="412.363636" y="368.929324" style="fill: #1f77b4; stroke: #1f77b4"/>
     <use xlink:href="#m87d40ee06c" x="442.8" y="368.784132" style="fill: #1f77b4; stroke: #1f77b4"/>
     <use xlink:href="#m87d40ee06c" x="473.236364" y="368.640722" style="fill: #1f77b4; stroke: #1f77b4"/>
     <use xlink:href="#m87d40ee06c" x="503.672727" y="368.462127" style="fill: #1f77b4; stroke: #1f77b4"/>
     <use xlink:href="#m87d40ee06c" x="534.109091" y="368.300902" style="fill: #1f77b4; stroke: #1f77b4"/>
     <use xlink:href="#m87d40ee06c" x="564.545455" y="365.037207" style="fill: #1f77b4; stroke: #1f77b4"/>
     <use xlink:href="#m87d40ee06c" x="594.981818" y="367.046731" style="fill: #1f77b4; stroke: #1f77b4"/>
     <use xlink:href="#m87d40ee06c" x="625.418182" y="366.779507" style="fill: #1f77b4; stroke: #1f77b4"/>
     <use xlink:href="#m87d40ee06c" x="655.854545" y="366.452603" style="fill: #1f77b4; stroke: #1f77b4"/>
     <use xlink:href="#m87d40ee06c" x="686.290909" y="366.279798" style="fill: #1f77b4; stroke: #1f77b4"/>
     <use xlink:href="#m87d40ee06c" x="716.727273" y="365.10045" style="fill: #1f77b4; stroke: #1f77b4"/>
     <use xlink:href="#m87d40ee06c" x="747.163636" y="364.822982" style="fill: #1f77b4; stroke: #1f77b4"/>
    </g>
   </g>
   <g id="line2d_30">
    <path d="M 138.436364 369.36 
L 168.872727 369.305664 
L 199.309091 368.932442 
L 229.745455 367.951284 
L 260.181818 366.629862 
L 290.618182 364.242661 
L 321.054545 359.316387 
L 351.490909 349.348487 
L 381.927273 326.41978 
L 412.363636 293.250159 
L 442.8 282.678779 
L 473.236364 279.702794 
L 503.672727 276.001297 
L 534.109091 271.352936 
L 564.545455 263.905404 
L 594.981818 241.182459 
L 625.418182 212.434949 
L 655.854545 182.791348 
L 686.290909 150.362829 
L 716.727273 109.501611 
L 747.163636 66.96 
" clip-path="url(#p4814c45b5d)" style="fill: none; stroke: #ff7f0e; stroke-width: 1.5; stroke-linecap: square"/>
    <defs>
     <path id="m14cd0fbd79" d="M 0 3 
C 0.795609 3 1.55874 2.683901 2.12132 2.12132 
C 2.683901 1.55874 3 0.795609 3 0 
C 3 -0.795609 2.683901 -1.55874 2.12132 -2.12132 
C 1.55874 -2.683901 0.795609 -3 0 -3 
C -0.795609 -3 -1.55874 -2.683901 -2.12132 -2.12132 
C -2.683901 -1.55874 -3 -0.795609 -3 0 
C -3 0.795609 -2.683901 1.55874 -2.12132 2.12132 
C -1.55874 2.683901 -0.795609 3 0 3 
z
" style="stroke: #ff7f0e"/>
    </defs>
    <g clip-path="url(#p4814c45b5d)">
     <use xlink:href="#m14cd0fbd79" x="138.436364" y="369.36" style="fill: #ff7f0e; stroke: #ff7f0e"/>
     <use xlink:href="#m14cd0fbd79" x="168.872727" y="369.305664" style="fill: #ff7f0e; stroke: #ff7f0e"/>
     <use xlink:href="#m14cd0fbd79" x="199.309091" y="368.932442" style="fill: #ff7f0e; stroke: #ff7f0e"/>
     <use xlink:href="#m14cd0fbd79" x="229.745455" y="367.951284" style="fill: #ff7f0e; stroke: #ff7f0e"/>
     <use xlink:href="#m14cd0fbd79" x="260.181818" y="366.629862" style="fill: #ff7f0e; stroke: #ff7f0e"/>
     <use xlink:href="#m14cd0fbd79" x="290.618182" y="364.242661" style="fill: #ff7f0e; stroke: #ff7f0e"/>
     <use xlink:href="#m14cd0fbd79" x="321.054545" y="359.316387" style="fill: #ff7f0e; stroke: #ff7f0e"/>
     <use xlink:href="#m14cd0fbd79" x="351.490909" y="349.348487" style="fill: #ff7f0e; stroke: #ff7f0e"/>
     <use xlink:href="#m14cd0fbd79" x="381.927273" y="326.41978" style="fill: #ff7f0e; stroke: #ff7f0e"/>
     <use xlink:href="#m14cd0fbd79" x="412.363636" y="293.250159" style="fill: #ff7f0e; stroke: #ff7f0e"/>
     <use xlink:href="#m14cd0fbd79" x="442.8" y="282.678779" style="fill: #ff7f0e; stroke: #ff7f0e"/>
     <use xlink:href="#m14cd0fbd79" x="473.236364" y="279.702794" style="fill: #ff7f0e; stroke: #ff7f0e"/>
     <use xlink:href="#m14cd0fbd79" x="503.672727" y="276.001297" style="fill: #ff7f0e; stroke: #ff7f0e"/>
     <use xlink:href="#m14cd0fbd79" x="534.109091" y="271.352936" style="fill: #ff7f0e; stroke: #ff7f0e"/>
     <use xlink:href="#m14cd0fbd79" x="564.545455" y="263.905404" style="fill: #ff7f0e; stroke: #ff7f0e"/>
     <use xlink:href="#m14cd0fbd79" x="594.981818" y="241.182459" style="fill: #ff7f0e; stroke: #ff7f0e"/>
     <use xlink:href="#m14cd0fbd79" x="625.418182" y="212.434949" style="fill: #ff7f0e; stroke: #ff7f0e"/>
     <use xlink:href="#m14cd0fbd79" x="655.854545" y="182.791348" style="fill: #ff7f0e; stroke: #ff7f0e"/>
     <use xlink:href="#m14cd0fbd79" x="686.290909" y="150.362829" style="fill: #ff7f0e; stroke: #ff7f0e"/>
     <use xlink:href="#m14cd0fbd79" x="716.727273" y="109.501611" style="fill: #ff7f0e; stroke: #ff7f0e"/>
     <use xlink:href="#m14cd0fbd79" x="747.163636" y="66.96" style="fill: #ff7f0e; stroke: #ff7f0e"/>
    </g>
   </g>
   <g id="line2d_31">
    <path d="M 138.436364 369.36 
L 168.872727 369.352429 
L 199.309091 369.302101 
L 229.745455 369.173389 
L 260.181818 368.931551 
L 290.618182 368.509337 
L 321.054545 367.778479 
L 351.490909 367.002639 
L 381.927273 365.694132 
L 412.363636 364.373155 
L 442.8 361.953442 
L 473.236364 359.478948 
L 503.672727 356.805372 
L 534.109091 353.458838 
L 564.545455 350.021892 
L 594.981818 345.386447 
L 625.418182 340.867689 
L 655.854545 334.241426 
L 686.290909 328.046728 
L 716.727273 320.462021 
L 747.163636 313.26568 
" clip-path="url(#p4814c45b5d)" style="fill: none; stroke: #2ca02c; stroke-width: 1.5; stroke-linecap: square"/>
    <defs>
     <path id="m32e7fc174d" d="M 0 3 
C 0.795609 3 1.55874 2.683901 2.12132 2.12132 
C 2.683901 1.55874 3 0.795609 3 0 
C 3 -0.795609 2.683901 -1.55874 2.12132 -2.12132 
C 1.55874 -2.683901 0.795609 -3 0 -3 
C -0.795609 -3 -1.55874 -2.683901 -2.12132 -2.12132 
C -2.683901 -1.55874 -3 -0.795609 -3 0 
C -3 0.795609 -2.683901 1.55874 -2.12132 2.12132 
C -1.55874 2.683901 -0.795609 3 0 3 
z
" style="stroke: #2ca02c"/>
    </defs>
    <g clip-path="url(#p4814c45b5d)">
     <use xlink:href="#m32e7fc174d" x="138.436364" y="369.36" style="fill: #2ca02c; stroke: #2ca02c"/>
     <use xlink:href="#m32e7fc174d" x="168.872727" y="369.352429" style="fill: #2ca02c; stroke: #2ca02c"/>
     <use xlink:href="#m32e7fc174d" x="199.309091" y="369.302101" style="fill: #2ca02c; stroke: #2ca02c"/>
     <use xlink:href="#m32e7fc174d" x="229.745455" y="369.173389" style="fill: #2ca02c; stroke: #2ca02c"/>
     <use xlink:href="#m32e7fc174d" x="260.181818" y="368.931551" style="fill: #2ca02c; stroke: #2ca02c"/>
     <use xlink:href="#m32e7fc174d" x="290.618182" y="368.509337" style="fill: #2ca02c; stroke: #2ca02c"/>
     <use xlink:href="#m32e7fc174d" x="321.054545" y="367.778479" style="fill: #2ca02c; stroke: #2ca02c"/>
     <use xlink:href="#m32e7fc174d" x="351.490909" y="367.002639" style="fill: #2ca02c; stroke: #2ca02c"/>
     <use xlink:href="#m32e7fc174d" x="381.927273" y="365.694132" style="fill: #2ca02c; stroke: #2ca02c"/>
     <use xlink:href="#m32e7fc174d" x="412.363636" y="364.373155" style="fill: #2ca02c; stroke: #2ca02c"/>
     <use xlink:href="#m32e7fc174d" x="442.8" y="361.953442" style="fill: #2ca02c; stroke: #2ca02c"/>
     <use xlink:href="#m32e7fc174d" x="473.236364" y="359.478948" style="fill: #2ca02c; stroke: #2ca02c"/>
     <use xlink:href="#m32e7fc174d" x="503.672727" y="356.805372" style="fill: #2ca02c; stroke: #2ca02c"/>
     <use xlink:href="#m32e7fc174d" x="534.109091" y="353.458838" style="fill: #2ca02c; stroke: #2ca02c"/>
     <use xlink:href="#m32e7fc174d" x="564.545455" y="350.021892" style="fill: #2ca02c; stroke: #2ca02c"/>
     <use xlink:href="#m32e7fc174d" x="594.981818" y="345.386447" style="fill: #2ca02c; stroke: #2ca02c"/>
     <use xlink:href="#m32e7fc174d" x="625.418182" y="340.867689" style="fill: #2ca02c; stroke: #2ca02c"/>
     <use xlink:href="#m32e7fc174d" x="655.854545" y="334.241426" style="fill: #2ca02c; stroke: #2ca02c"/>
     <use xlink:href="#m32e7fc174d" x="686.290909" y="328.046728" style="fill: #2ca02c; stroke: #2ca02c"/>
     <use xlink:href="#m32e7fc174d" x="716.727273" y="320.462021" style="fill: #2ca02c; stroke: #2ca02c"/>
     <use xlink:href="#m32e7fc174d" x="747.163636" y="313.26568" style="fill: #2ca02c; stroke: #2ca02c"/>
    </g>
   </g>
   <g id="patch_3">
    <path d="M 108 384.48 
L 108 51.84 
" style="fill: none; stroke: #000000; stroke-width: 0.8; stroke-linejoin: miter; stroke-linecap: square"/>
   </g>
   <g id="patch_4">
    <path d="M 777.6 384.48 
L 777.6 51.84 
" style="fill: none; stroke: #000000; stroke-width: 0.8; stroke-linejoin: miter; stroke-linecap: square"/>
   </g>
   <g id="patch_5">
    <path d="M 108 384.48 
L 777.6 384.48 
" style="fill: none; stroke: #000000; stroke-width: 0.8; stroke-linejoin: miter; stroke-linecap: square"/>
   </g>
   <g id="patch_6">
    <path d="M 108 51.84 
L 777.6 51.84 
" style="fill: none; stroke: #000000; stroke-width: 0.8; stroke-linejoin: miter; stroke-linecap: square"/>
   </g>
   <g id="text_17">
    <!-- Matrix Size vs Execution Time -->
    <g transform="translate(353.166562 45.84) scale(0.12 -0.12)">
     <defs>
      <path id="DejaVuSans-76" d="M 191 3500 
L 800 3500 
L 1894 563 
L 2988 3500 
L 3597 3500 
L 2284 0 
L 1503 0 
L 191 3500 
z
" transform="scale(0.015625)"/>
     </defs>
     <use xlink:href="#DejaVuSans-4d"/>
     <use xlink:href="#DejaVuSans-61" x="86.279297"/>
     <use xlink:href="#DejaVuSans-74" x="147.558594"/>
     <use xlink:href="#DejaVuSans-72" x="186.767578"/>
     <use xlink:href="#DejaVuSans-69" x="227.880859"/>
     <use xlink:href="#DejaVuSans-78" x="255.664062"/>
     <use xlink:href="#DejaVuSans-20" x="314.84375"/>
     <use xlink:href="#DejaVuSans-53" x="346.630859"/>
     <use xlink:href="#DejaVuSans-69" x="410.107422"/>
     <use xlink:href="#DejaVuSans-7a" x="437.890625"/>
     <use xlink:href="#DejaVuSans-65" x="490.380859"/>
     <use xlink:href="#DejaVuSans-20" x="551.904297"/>
     <use xlink:href="#DejaVuSans-76" x="583.691406"/>
     <use xlink:href="#DejaVuSans-73" x="642.871094"/>
     <use xlink:href="#DejaVuSans-20" x="694.970703"/>
     <use xlink:href="#DejaVuSans-45" x="726.757812"/>
     <use xlink:href="#DejaVuSans-78" x="789.941406"/>
     <use xlink:href="#DejaVuSans-65" x="845.996094"/>
     <use xlink:href="#DejaVuSans-63" x="907.519531"/>
     <use xlink:href="#DejaVuSans-75" x="962.5"/>
     <use xlink:href="#DejaVuSans-74" x="1025.878906"/>
     <use xlink:href="#DejaVuSans-69" x="1065.087891"/>
     <use xlink:href="#DejaVuSans-6f" x="1092.871094"/>
     <use xlink:href="#DejaVuSans-6e" x="1154.052734"/>
     <use xlink:href="#DejaVuSans-20" x="1217.431641"/>
     <use xlink:href="#DejaVuSans-54" x="1249.21875"/>
     <use xlink:href="#DejaVuSans-69" x="1307.177734"/>
     <use xlink:href="#DejaVuSans-6d" x="1334.960938"/>
     <use xlink:href="#DejaVuSans-65" x="1432.373047"/>
    </g>
   </g>
   <g id="legend_1">
    <g id="patch_7">
     <path d="M 115 104.70875 
L 283.835938 104.70875 
Q 285.835938 104.70875 285.835938 102.70875 
L 285.835938 58.84 
Q 285.835938 56.84 283.835938 56.84 
L 115 56.84 
Q 113 56.84 113 58.84 
L 113 102.70875 
Q 113 104.70875 115 104.70875 
z
" style="fill: #ffffff; opacity: 0.8; stroke: #cccccc; stroke-linejoin: miter"/>
    </g>
    <g id="line2d_32">
     <path d="M 117 64.938438 
L 127 64.938438 
L 137 64.938438 
" style="fill: none; stroke: #1f77b4; stroke-width: 1.5; stroke-linecap: square"/>
     <g>
      <use xlink:href="#m87d40ee06c" x="127" y="64.938438" style="fill: #1f77b4; stroke: #1f77b4"/>
     </g>
    </g>
    <g id="text_18">
     <!-- openblas_gemm_perf.csv -->
     <g transform="translate(145 68.438438) scale(0.1 -0.1)">
      <defs>
       <path id="DejaVuSans-70" d="M 1159 525 
L 1159 -1331 
L 581 -1331 
L 581 3500 
L 1159 3500 
L 1159 2969 
Q 1341 3281 1617 3432 
Q 1894 3584 2278 3584 
Q 2916 3584 3314 3078 
Q 3713 2572 3713 1747 
Q 3713 922 3314 415 
Q 2916 -91 2278 -91 
Q 1894 -91 1617 61 
Q 1341 213 1159 525 
z
M 3116 1747 
Q 3116 2381 2855 2742 
Q 2594 3103 2138 3103 
Q 1681 3103 1420 2742 
Q 1159 2381 1159 1747 
Q 1159 1113 1420 752 
Q 1681 391 2138 391 
Q 2594 391 2855 752 
Q 3116 1113 3116 1747 
z
" transform="scale(0.015625)"/>
       <path id="DejaVuSans-62" d="M 3116 1747 
Q 3116 2381 2855 2742 
Q 2594 3103 2138 3103 
Q 1681 3103 1420 2742 
Q 1159 2381 1159 1747 
Q 1159 1113 1420 752 
Q 1681 391 2138 391 
Q 2594 391 2855 752 
Q 3116 1113 3116 1747 
z
M 1159 2969 
Q 1341 3281 1617 3432 
Q 1894 3584 2278 3584 
Q 2916 3584 3314 3078 
Q 3713 2572 3713 1747 
Q 3713 922 3314 415 
Q 2916 -91 2278 -91 
Q 1894 -91 1617 61 
Q 1341 213 1159 525 
L 1159 0 
L 581 0 
L 581 4863 
L 1159 4863 
L 1159 2969 
z
" transform="scale(0.015625)"/>
       <path id="DejaVuSans-6c" d="M 603 4863 
L 1178 4863 
L 1178 0 
L 603 0 
L 603 4863 
z
" transform="scale(0.015625)"/>
       <path id="DejaVuSans-5f" d="M 3263 -1063 
L 3263 -1509 
L -63 -1509 
L -63 -1063 
L 3263 -1063 
z
" transform="scale(0.015625)"/>
       <path id="DejaVuSans-67" d="M 2906 1791 
Q 2906 2416 2648 2759 
Q 2391 3103 1925 3103 
Q 1463 3103 1205 2759 
Q 947 2416 947 1791 
Q 947 1169 1205 825 
Q 1463 481 1925 481 
Q 2391 481 2648 825 
Q 2906 1169 2906 1791 
z
M 3481 434 
Q 3481 -459 3084 -895 
Q 2688 -1331 1869 -1331 
Q 1566 -1331 1297 -1286 
Q 1028 -1241 775 -1147 
L 775 -588 
Q 1028 -725 1275 -790 
Q 1522 -856 1778 -856 
Q 2344 -856 2625 -561 
Q 2906 -266 2906 331 
L 2906 616 
Q 2728 306 2450 153 
Q 2172 0 1784 0 
Q 1141 0 747 490 
Q 353 981 353 1791 
Q 353 2603 747 3093 
Q 1141 3584 1784 3584 
Q 2172 3584 2450 3431 
Q 2728 3278 2906 2969 
L 2906 3500 
L 3481 3500 
L 3481 434 
z
" transform="scale(0.015625)"/>
       <path id="DejaVuSans-66" d="M 2375 4863 
L 2375 4384 
L 1825 4384 
Q 1516 4384 1395 4259 
Q 1275 4134 1275 3809 
L 1275 3500 
L 2222 3500 
L 2222 3053 
L 1275 3053 
L 1275 0 
L 697 0 
L 697 3053 
L 147 3053 
L 147 3500 
L 697 3500 
L 697 3744 
Q 697 4328 969 4595 
Q 1241 4863 1831 4863 
L 2375 4863 
z
" transform="scale(0.015625)"/>
      </defs>
      <use xlink:href="#DejaVuSans-6f"/>
      <use xlink:href="#DejaVuSans-70" x="61.181641"/>
      <use xlink:href="#DejaVuSans-65" x="124.658203"/>
      <use xlink:href="#DejaVuSans-6e" x="186.181641"/>
      <use xlink:href="#DejaVuSans-62" x="249.560547"/>
      <use xlink:href="#DejaVuSans-6c" x="313.037109"/>
      <use xlink:href="#DejaVuSans-61" x="340.820312"/>
      <use xlink:href="#DejaVuSans-73" x="402.099609"/>
      <use xlink:href="#DejaVuSans-5f" x="454.199219"/>
      <use xlink:href="#DejaVuSans-67" x="504.199219"/>
      <use xlink:href="#DejaVuSans-65" x="567.675781"/>
      <use xlink:href="#DejaVuSans-6d" x="629.199219"/>
      <use xlink:href="#DejaVuSans-6d" x="726.611328"/>
      <use xlink:href="#DejaVuSans-5f" x="824.023438"/>
      <use xlink:href="#DejaVuSans-70" x="874.023438"/>
      <use xlink:href="#DejaVuSans-65" x="937.5"/>
      <use xlink:href="#DejaVuSans-72" x="999.023438"/>
      <use xlink:href="#DejaVuSans-66" x="1040.136719"/>
      <use xlink:href="#DejaVuSans-2e" x="1068.091797"/>
      <use xlink:href="#DejaVuSans-63" x="1099.878906"/>
      <use xlink:href="#DejaVuSans-73" x="1154.859375"/>
      <use xlink:href="#DejaVuSans-76" x="1206.958984"/>
     </g>
    </g>
    <g id="line2d_33">
     <path d="M 117 79.894688 
L 127 79.894688 
L 137 79.894688 
" style="fill: none; stroke: #ff7f0e; stroke-width: 1.5; stroke-linecap: square"/>
     <g>
      <use xlink:href="#m14cd0fbd79" x="127" y="79.894688" style="fill: #ff7f0e; stroke: #ff7f0e"/>
     </g>
    </g>
    <g id="text_19">
     <!-- naive_gemm_iter0_perf.csv -->
     <g transform="translate(145 83.394688) scale(0.1 -0.1)">
      <use xlink:href="#DejaVuSans-6e"/>
      <use xlink:href="#DejaVuSans-61" x="63.378906"/>
      <use xlink:href="#DejaVuSans-69" x="124.658203"/>
      <use xlink:href="#DejaVuSans-76" x="152.441406"/>
      <use xlink:href="#DejaVuSans-65" x="211.621094"/>
      <use xlink:href="#DejaVuSans-5f" x="273.144531"/>
      <use xlink:href="#DejaVuSans-67" x="323.144531"/>
      <use xlink:href="#DejaVuSans-65" x="386.621094"/>
      <use xlink:href="#DejaVuSans-6d" x="448.144531"/>
      <use xlink:href="#DejaVuSans-6d" x="545.556641"/>
      <use xlink:href="#DejaVuSans-5f" x="642.96875"/>
      <use xlink:href="#DejaVuSans-69" x="692.96875"/>
      <use xlink:href="#DejaVuSans-74" x="720.751953"/>
      <use xlink:href="#DejaVuSans-65" x="759.960938"/>
      <use xlink:href="#DejaVuSans-72" x="821.484375"/>
      <use xlink:href="#DejaVuSans-30" x="862.597656"/>
      <use xlink:href="#DejaVuSans-5f" x="926.220703"/>
      <use xlink:href="#DejaVuSans-70" x="976.220703"/>
      <use xlink:href="#DejaVuSans-65" x="1039.697266"/>
      <use xlink:href="#DejaVuSans-72" x="1101.220703"/>
      <use xlink:href="#DejaVuSans-66" x="1142.333984"/>
      <use xlink:href="#DejaVuSans-2e" x="1170.289062"/>
      <use xlink:href="#DejaVuSans-63" x="1202.076172"/>
      <use xlink:href="#DejaVuSans-73" x="1257.056641"/>
      <use xlink:href="#DejaVuSans-76" x="1309.15625"/>
     </g>
    </g>
    <g id="line2d_34">
     <path d="M 117 94.850938 
L 127 94.850938 
L 137 94.850938 
" style="fill: none; stroke: #2ca02c; stroke-width: 1.5; stroke-linecap: square"/>
     <g>
      <use xlink:href="#m32e7fc174d" x="127" y="94.850938" style="fill: #2ca02c; stroke: #2ca02c"/>
     </g>
    </g>
    <g id="text_20">
     <!-- naive_gemm_iter1_perf.csv -->
     <g transform="translate(145 98.350938) scale(0.1 -0.1)">
      <use xlink:href="#DejaVuSans-6e"/>
      <use xlink:href="#DejaVuSans-61" x="63.378906"/>
      <use xlink:href="#DejaVuSans-69" x="124.658203"/>
      <use xlink:href="#DejaVuSans-76" x="152.441406"/>
      <use xlink:href="#DejaVuSans-65" x="211.621094"/>
      <use xlink:href="#DejaVuSans-5f" x="273.144531"/>
      <use xlink:href="#DejaVuSans-67" x="323.144531"/>
      <use xlink:href="#DejaVuSans-65" x="386.621094"/>
      <use xlink:href="#DejaVuSans-6d" x="448.144531"/>
      <use xlink:href="#DejaVuSans-6d" x="545.556641"/>
      <use xlink:href="#DejaVuSans-5f" x="642.96875"/>
      <use xlink:href="#DejaVuSans-69" x="692.96875"/>
      <use xlink:href="#DejaVuSans-74" x="720.751953"/>
      <use xlink:href="#DejaVuSans-65" x="759.960938"/>
      <use xlink:href="#DejaVuSans-72" x="821.484375"/>
      <use xlink:href="#DejaVuSans-31" x="862.597656"/>
      <use xlink:href="#DejaVuSans-5f" x="926.220703"/>
      <use xlink:href="#DejaVuSans-70" x="976.220703"/>
      <use xlink:href="#DejaVuSans-65" x="1039.697266"/>
      <use xlink:href="#DejaVuSans-72" x="1101.220703"/>
      <use xlink:href="#DejaVuSans-66" x="1142.333984"/>
      <use xlink:href="#DejaVuSans-2e" x="1170.289062"/>
      <use xlink:href="#DejaVuSans-63" x="1202.076172"/>
      <use xlink:href="#DejaVuSans-73" x="1257.056641"/>
      <use xlink:href="#DejaVuSans-76" x="1309.15625"/>
     </g>
    </g>
   </g>
  </g>
 </g>
 <defs>
  <clipPath id="p4814c45b5d">
   <rect x="108" y="51.84" width="669.6" height="332.64"/>
  </clipPath>
 </defs>
</svg>
